<svg xmlns="http://www.w3.org/2000/svg" width="600" height="400" viewBox="0 0 600 400">
  <defs>
    <linearGradient id="bg" x1="0%" y1="0%" x2="100%" y2="100%">
      <stop offset="0%" style="stop-color:#1a3a5c;stop-opacity:1"/>
      <stop offset="100%" style="stop-color:#1E6FA8;stop-opacity:1"/>
    </linearGradient>
    <radialGradient id="glow" cx="50%" cy="38%" r="55%">
      <stop offset="0%" style="stop-color:#D4AF37;stop-opacity:0.16"/>
      <stop offset="100%" style="stop-color:#D4AF37;stop-opacity:0"/>
    </radialGradient>
  </defs>
  <rect width="600" height="400" fill="url(#bg)" rx="14"/>
  <rect width="600" height="400" fill="url(#glow)" rx="14"/>
  <g transform="translate(300,150)" stroke="#F9C74F" stroke-width="4" fill="none" stroke-linecap="round" stroke-linejoin="round">
    
<path d="M -55,-50 L -25,-65 L 0,-45 L 25,-65 L 55,-50 L 70,-15 L 45,-5 L 45,60 L -45,60 L -45,-5 L -70,-15 Z" />
<path d="M -12,-58 L 0,-40 L 12,-58" stroke-width="2.5" opacity="0.7"/>
<line x1="0" y1="-40" x2="0" y2="-5" stroke-width="2" opacity="0.5"/>
<circle cx="0" cy="-20" r="2.5" fill="#F9C74F" stroke="none"/>
<circle cx="0" cy="-8" r="2.5" fill="#F9C74F" stroke="none"/>

  </g>
  <rect x="210" y="248" width="180" height="2" fill="#D4AF37" rx="1" opacity="0.75"/>
  <text x="300" y="284" font-family="Georgia,serif" font-size="21" font-weight="600" fill="white" text-anchor="middle" opacity="0.97">Polo Shirt</text>
  <text x="300" y="312" font-family="Arial,sans-serif" font-size="12.5" letter-spacing="1.5" fill="#F9C74F" text-anchor="middle" opacity="0.85">MADE JUST FOR YOU</text>
</svg>