<svg xmlns="http://www.w3.org/2000/svg" width="600" height="400" viewBox="0 0 600 400">
  <defs>
    <linearGradient id="bg" x1="0%" y1="0%" x2="100%" y2="100%">
      <stop offset="0%" style="stop-color:#0D3B66;stop-opacity:1"/>
      <stop offset="100%" style="stop-color:#1E6FA8;stop-opacity:1"/>
    </linearGradient>
    <radialGradient id="glow" cx="50%" cy="38%" r="55%">
      <stop offset="0%" style="stop-color:#D4AF37;stop-opacity:0.16"/>
      <stop offset="100%" style="stop-color:#D4AF37;stop-opacity:0"/>
    </radialGradient>
  </defs>
  <rect width="600" height="400" fill="url(#bg)" rx="14"/>
  <rect width="600" height="400" fill="url(#glow)" rx="14"/>
  <g transform="translate(300,150)" stroke="#F9C74F" stroke-width="4" fill="none" stroke-linecap="round" stroke-linejoin="round">
    
<path d="M -45,-30 L -45,40 Q -45,55 -30,55 L 30,55 Q 45,55 45,40 L 45,-30 Z" />
<path d="M 45,-15 Q 75,-15 75,10 Q 75,35 45,30" stroke-width="4"/>
<path d="M -20,-55 Q -10,-70 -20,-85" stroke-width="2.5" opacity="0.6" stroke-linecap="round"/>
<path d="M 5,-55 Q 15,-70 5,-85" stroke-width="2.5" opacity="0.6" stroke-linecap="round"/>
<path d="M 30,-55 Q 40,-70 30,-85" stroke-width="2.5" opacity="0.6" stroke-linecap="round"/>

  </g>
  <rect x="210" y="248" width="180" height="2" fill="#D4AF37" rx="1" opacity="0.75"/>
  <text x="300" y="284" font-family="Georgia,serif" font-size="21" font-weight="600" fill="white" text-anchor="middle" opacity="0.97">Coffee Cup</text>
  <text x="300" y="312" font-family="Arial,sans-serif" font-size="12.5" letter-spacing="1.5" fill="#F9C74F" text-anchor="middle" opacity="0.85">MADE JUST FOR YOU</text>
</svg>