<svg xmlns="http://www.w3.org/2000/svg" width="600" height="400" viewBox="0 0 600 400">
  <defs>
    <linearGradient id="bg" x1="0%" y1="0%" x2="100%" y2="100%">
      <stop offset="0%" style="stop-color:#1a3a5c;stop-opacity:1"/>
      <stop offset="100%" style="stop-color:#215d94;stop-opacity:1"/>
    </linearGradient>
    <radialGradient id="glow" cx="50%" cy="38%" r="55%">
      <stop offset="0%" style="stop-color:#D4AF37;stop-opacity:0.16"/>
      <stop offset="100%" style="stop-color:#D4AF37;stop-opacity:0"/>
    </radialGradient>
  </defs>
  <rect width="600" height="400" fill="url(#bg)" rx="14"/>
  <rect width="600" height="400" fill="url(#glow)" rx="14"/>
  <g transform="translate(300,150)" stroke="#F9C74F" stroke-width="4" fill="none" stroke-linecap="round" stroke-linejoin="round">
    
<path d="M -35,-75 L -35,-60 L -42,-58 L -42,-40 L -30,60 Q -30,75 0,75 Q 30,75 30,60 L 42,-40 L 42,-58 L 35,-60 L 35,-75 Z" />
<rect x="-35" y="-88" width="70" height="16" rx="6" fill="#F9C74F" stroke="none" opacity="0.9"/>
<circle cx="18" cy="-80" r="4" fill="#0D3B66" stroke="none"/>
<line x1="-25" y1="-35" x2="-18" y2="45" stroke-width="1.5" opacity="0.35"/>
<line x1="25" y1="-35" x2="18" y2="45" stroke-width="1.5" opacity="0.35"/>

  </g>
  <rect x="210" y="248" width="180" height="2" fill="#D4AF37" rx="1" opacity="0.75"/>
  <text x="300" y="284" font-family="Georgia,serif" font-size="21" font-weight="600" fill="white" text-anchor="middle" opacity="0.97">Leak Proof Tumbler</text>
  <text x="300" y="312" font-family="Arial,sans-serif" font-size="12.5" letter-spacing="1.5" fill="#F9C74F" text-anchor="middle" opacity="0.85">MADE JUST FOR YOU</text>
</svg>