<svg xmlns="http://www.w3.org/2000/svg" width="600" height="400" viewBox="0 0 600 400">
  <defs>
    <linearGradient id="bg" x1="0%" y1="0%" x2="100%" y2="100%">
      <stop offset="0%" style="stop-color:#0D3B66;stop-opacity:1"/>
      <stop offset="100%" style="stop-color:#4d8fc4;stop-opacity:1"/>
    </linearGradient>
    <radialGradient id="glow" cx="50%" cy="38%" r="55%">
      <stop offset="0%" style="stop-color:#D4AF37;stop-opacity:0.16"/>
      <stop offset="100%" style="stop-color:#D4AF37;stop-opacity:0"/>
    </radialGradient>
  </defs>
  <rect width="600" height="400" fill="url(#bg)" rx="14"/>
  <rect width="600" height="400" fill="url(#glow)" rx="14"/>
  <g transform="translate(300,150)" stroke="#F9C74F" stroke-width="4" fill="none" stroke-linecap="round" stroke-linejoin="round">
    
<path d="M -55,-55 L -55,10 Q -55,45 -20,45 L 5,45 Q 15,45 15,30 L 15,-10 L -15,-10 L -15,-55 Z" transform="translate(-15,0)"/>
<path d="M -55,-55 L -55,10 Q -55,45 -20,45 L 5,45 Q 15,45 15,30 L 15,-10 L -15,-10 L -15,-55 Z" transform="translate(55,0) scale(-1,1)"/>
<line x1="-65" y1="-40" x2="-25" y2="-40" stroke="#F9C74F" stroke-width="3" opacity="0.8"/>
<line x1="25" y1="-40" x2="65" y2="-40" stroke="#F9C74F" stroke-width="3" opacity="0.8"/>

  </g>
  <rect x="210" y="248" width="180" height="2" fill="#D4AF37" rx="1" opacity="0.75"/>
  <text x="300" y="284" font-family="Georgia,serif" font-size="21" font-weight="600" fill="white" text-anchor="middle" opacity="0.97">Custom Socks</text>
  <text x="300" y="312" font-family="Arial,sans-serif" font-size="12.5" letter-spacing="1.5" fill="#F9C74F" text-anchor="middle" opacity="0.85">MADE JUST FOR YOU</text>
</svg>